<?xml version="1.0" encoding="UTF-8" standalone="no"?>
<!DOCTYPE svg PUBLIC "-//W3C//DTD SVG 1.1//EN" "http://www.w3.org/Graphics/SVG/1.1/DTD/svg11.dtd">
<svg width="100%" height="100%" viewBox="0 0 488 489" version="1.1" xmlns="http://www.w3.org/2000/svg" xmlns:xlink="http://www.w3.org/1999/xlink" xml:space="preserve" xmlns:serif="http://www.serif.com/" style="fill-rule:evenodd;clip-rule:evenodd;stroke-linecap:round;stroke-linejoin:round;stroke-miterlimit:1.5;">
    <g id="Capa1">
        <g transform="matrix(1.6265,0,0,1.54026,-158.977,-152.433)">
            <path d="M230.773,175.776C227.288,175.893 216.986,180.655 220.878,184.06C223.953,186.751 227.471,180.265 235.799,179.869C244.506,179.454 248.931,179.137 257.568,180.371C261.818,180.978 269.764,186.18 271.567,184.239C272.136,183.627 272.885,181.529 270.346,179.703C264.937,175.812 267.223,177.19 255.023,174.256C251.076,173.307 247.878,173.658 243.847,173.833C237.148,174.125 237.128,174.029 230.773,175.776Z" style="fill:none;stroke:black;stroke-width:0.63px;"/>
        </g>
        <g transform="matrix(1.6265,0,0,1.54026,-158.977,-152.433)">
            <path d="M230.453,147.368C230.693,146.597 236.098,143.856 244.172,134.326C244.717,136.612 244.603,139.722 244.651,140.435C244.853,143.424 244.43,143.722 244.591,146.714C244.91,152.613 243.838,152.272 244.605,162.37C244.753,164.33 244.528,163.781 244.699,163.807C245.049,163.861 246.489,164.969 248.39,164.662C249.179,164.535 249.353,164.932 249.371,163.249C249.384,161.922 249.231,160.313 249.201,159.302C249.062,154.616 248.841,153.432 248.752,148.893C248.745,148.509 248.792,147.507 248.706,143.657C248.607,139.202 248.776,139.373 248.31,134.943C248.001,132.006 252.903,138.136 255.801,141.034C256.36,141.593 258.328,144.829 262.496,147.073C262.97,147.329 266.255,147.75 266.343,146.249C266.521,143.221 264.521,143.116 259.229,136.998C258.975,136.704 258.87,136.853 255.687,133.67C253.686,131.669 253.793,131.582 251.627,129.793C251.398,129.604 246.885,126.378 246.467,126.19C244.456,125.285 239.331,132.168 229.522,141.639C229.449,141.71 226.705,143.937 226.988,145.822C227.145,146.868 229.221,148.413 230.926,146.707" style="fill:none;stroke:black;stroke-width:0.63px;"/>
        </g>
        <g transform="matrix(1.6265,0,0,1.54026,-158.977,-152.433)">
            <path d="M228.442,133.86C230.131,134.636 245.496,116.67 246.976,117.093C247.401,117.214 247.254,117.371 250.883,121C252.903,123.02 252.865,123.935 256.591,127.206C258.718,129.074 262.116,132.821 264.252,132.684C264.817,132.647 270.185,131.826 263.294,125.674C261.094,123.709 260.877,122.916 257.701,120.387C250.664,114.784 248.195,108.838 243.375,113.071C242.861,113.522 231.442,124.224 230.312,125.367C227.441,128.274 224.898,130.567 226.444,133.143C226.509,133.252 226.982,134.041 227.669,134.139C228.473,134.254 228.51,134.067 229.24,133.641" style="fill:none;stroke:black;stroke-width:0.63px;"/>
        </g>
        <g transform="matrix(1.6265,0,0,1.54026,-158.977,-152.433)">
            <path d="M339.594,198.832C343.899,194.355 340.683,190.557 346.352,187.205C357.606,180.552 362.13,175.592 367.941,167.267C369.42,165.149 370.981,162.813 372.758,160.176C373.878,158.514 379.329,150.997 370.228,143.824C365.233,139.887 360.406,142.556 355.323,146.303C350.446,149.898 346.997,155.211 343.957,160.559C339.839,167.801 336.471,175.106 331.316,178.296C327.406,180.715 326.961,180.44 323.173,181.705C327.144,185.327 329.601,188.556 333.513,192.711C334.985,194.274 336.038,195.275 339.594,198.832Z" style="fill:none;stroke:black;stroke-width:0.63px;"/>
        </g>
        <g transform="matrix(1.6265,0,0,1.54026,-158.977,-152.433)">
            <path d="M194.922,350.239C196.732,348.997 180.912,355.892 177.535,366.909C171.593,386.299 154.943,388.71 150.303,385.926C146.571,383.686 145.933,383.29 144.406,379.432C141.448,371.959 145.768,361.588 153.483,357.302C173.294,346.295 174.667,342.618 178.596,333.779C179.281,332.237 179.347,331.173 180.583,332.322C181.528,333.199 181.395,333.315 192.113,343.586C197.216,348.476 197.585,348.979 196.618,349.682C196.463,349.795 196.254,349.947 194.432,350.676" style="fill:none;stroke:black;stroke-width:0.63px;"/>
        </g>
        <g transform="matrix(1.6265,0,0,1.54026,-158.977,-152.433)">
            <path d="M302.487,362.168C302.471,362.199 305.025,362.936 306.087,362.734C306.466,362.662 316.808,358.213 316.932,351.889C317.095,343.553 313.689,340.828 312.917,340.211C305.598,334.355 303.335,329.933 290.342,318.261C286.728,315.014 286.733,315.063 283.043,311.9C278.289,307.826 277.574,302.297 275.118,304.288C268.442,309.7 264.578,316.096 258.998,319.659C260.936,321.477 260.469,321.854 281.113,344.434C296.219,360.956 299.393,363.381 302.75,362.161" style="fill:none;stroke:black;stroke-width:0.63px;"/>
        </g>
        <g transform="matrix(1.6265,0,0,1.54026,-158.977,-152.433)">
            <path d="M323.118,363.21C321.822,363.73 317.001,358.299 323.345,358.407C327.294,358.474 327.814,357.651 335.805,363.725C339.489,366.524 344.394,375.994 338.569,382.338C332.988,388.415 327.371,386.445 322.302,385.831C315.562,385.014 308.802,365.832 314.064,365.393C315.144,365.303 317.131,367.842 317.557,370.294C318.03,373.009 318.722,381.883 329.132,380.148C330.343,379.946 333.5,377.733 333.876,376.863C335.655,372.759 334.244,367.149 330.852,366.019C325.163,364.122 323.241,364.327 322.771,363.151" style="fill:none;stroke:black;stroke-width:0.63px;"/>
        </g>
        <g transform="matrix(1.6265,0,0,1.54026,-158.977,-152.433)">
            <path d="M208.045,266.334C208.076,266.271 209.604,263.887 210.08,263.208C211.054,261.817 208.954,260.928 205.648,259.34C204.09,258.592 202.233,257.409 200.361,256.459C194.903,253.689 190.275,251.214 186.117,248.95C172.181,241.36 158.129,234.836 144.224,222.918C138.746,218.222 137.766,217.994 130.09,207.685C128.106,205.02 126.082,201.879 124.07,195.244C121.395,186.423 125.849,174.363 126.419,173.216C127.982,179.601 129.7,187.613 134.261,193.853C137.497,198.281 141.475,205.072 148.889,212.041C155.156,217.932 157.208,222.049 176.032,235.773C178.053,237.247 183.624,241.504 190.592,246.475C199.439,252.788 208.359,259.943 210.609,260.586C211.002,260.698 212.223,261.243 213.824,258.146C214.934,256.001 210.184,254.215 192.864,242C188.739,239.091 180.574,232.398 177.96,230.576C168.189,223.766 167.211,222.633 156.509,212.216C153.279,209.073 143.996,200.045 140.624,194.559C138.285,190.753 135.311,185.785 134.498,183.471C131.65,175.364 131.71,177.567 131.709,166.993C145.4,184.289 148.868,182.605 172.762,210.914C178.037,217.163 208.997,248.565 216.254,255.954C217.863,256.219 218.499,254.273 218.999,253.404C214.166,247.509 213.455,247.69 210.415,244.181C208.148,241.564 205.873,239.495 201.293,235.007C190.458,224.389 193.333,225.934 183.198,215.313C146.679,177.042 141.486,170.043 136.677,164.545C138.672,164.613 146.309,164.874 160.296,172.603C184.051,185.731 209.287,233.049 212.466,239.01C217.261,248.001 218.609,252.658 221.663,250.683C223.696,249.367 223.695,248.677 221.486,244.758C221.08,244.038 212.784,230.764 212.024,229.549C181.914,181.373 175.306,171.187 143.396,157.845C169.759,156.016 187.075,162.957 210.786,213.014C225.186,243.412 224.173,251.152 228.029,245.642C230.424,242.222 226.737,242.338 210.521,203.729C194.576,165.763 178.501,159.611 170.288,155.007C151.084,144.241 126.881,158.795 122.235,170.864C118.052,181.732 117.935,190.549 119.908,197.085C122.708,206.361 123.656,208.557 126.315,212.314C128.597,215.537 131.3,219.014 135.526,222.718C143.655,229.841 147.841,233.76 151.466,235.86C163.942,243.087 158.58,240.169 168.874,245.92C180.05,252.165 201.046,262.376 208.045,266.334Z" style="fill:none;stroke:black;stroke-width:0.63px;"/>
        </g>
        <g transform="matrix(1.46654,0,0,1.46654,-121.106,-123.881)">
            <path d="M176.455,308.945C187.86,297.109 198.532,284.609 207.221,275.344C215.144,266.895 204.797,279.311 248.67,232.752C256.166,224.797 265.102,217.662 290.439,188.103C300.264,176.64 304.547,173.173 312.882,180.651C316.895,184.253 335.21,203.551 337.621,206.003C344.378,212.874 348.057,214.62 344.438,221.217C338.914,231.285 280.961,287.2 270.979,298.941C269.429,300.764 270.703,299.523 254.335,316.149C245.565,325.059 243.513,326.853 239.652,330.532C229.625,340.084 217.28,360.226 207.377,350.471C193.498,336.8 167.362,318.382 176.455,308.945Z" style="fill:none;stroke:black;stroke-width:0.68px;"/>
        </g>
        <g transform="matrix(1.52298,0,0,1.4774,-123.705,-124.412)">
            <path d="M188.741,314.372C181.816,310.84 187.662,307.642 189.467,305.775C190.55,304.655 195.46,298.852 195.975,298.244C197.431,296.522 197.931,297.03 215.425,277.842C225.502,266.79 225.62,266.947 268.22,222.927C269.284,221.828 278.047,212.772 281.674,209.327C284.026,207.093 283.679,205.562 285.434,208.319C285.559,208.516 286.368,208.098 287.639,210.508C281.421,217.961 275.796,222.198 268.545,230.326C260.382,239.475 262.218,235.88 245.332,255.833C243.074,258.501 242.427,258.269 214.439,287.674C214.243,287.88 192.183,311.847 192.099,311.918C190.494,313.268 190.574,313.302 188.741,314.372Z" style="fill:none;stroke:black;stroke-width:0.67px;"/>
        </g>
    </g>
</svg>
